<?xml version="1.0" encoding="utf-8"?>
<svg xmlns="http://www.w3.org/2000/svg" width="180" height="30" viewBox="0 0 180 30" fill="none">
<g clip-path="url(#clip0_3_34161)">
<g clip-path="url(#clip1_3_34161)">
<g clip-path="url(#clip2_3_34161)">
<path d="M27.9799 0H2.02008C0.904419 0 0 0.920401 0 2.05577V27.9442C0 29.0796 0.904419 30 2.02008 30H27.9799C29.0956 30 30 29.0796 30 27.9442V2.05577C30 0.920401 29.0956 0 27.9799 0Z" fill="#5C62F9"/>
<path fill-rule="evenodd" clip-rule="evenodd" d="M17.2001 5.39697L15.6545 6.78218C15.3612 6.73909 15.057 6.7246 14.7573 6.7246C14.0991 6.7246 13.4018 6.79672 12.7788 7.04318L11.0743 5.7058L11.1981 8.50342C11.1274 8.65174 11.0648 8.8119 11.0113 8.98479C10.6929 10.0136 10.6427 10.5588 10.6427 11.3741C10.6427 11.4868 10.6942 12.1979 10.5625 12.706C10.2741 13.82 9.47365 15.6527 9.21637 16.9116C9.15345 17.2195 8.68751 20.092 9.01605 22.0777C9.39778 24.3851 11.8065 24.6315 14.0324 24.6577L14.1789 24.6591C14.3494 24.6605 14.5185 24.6608 14.6853 24.6608H14.8713C16.7684 24.6598 20.4434 24.6115 20.8923 22.371C20.8939 22.3651 20.8953 22.359 20.8967 22.3526C21.0383 21.7057 21.2568 20.9425 21.484 19.0603C21.5998 18.1011 21.5998 18.0492 21.5496 16.926C21.4993 15.8027 20.6715 13.1468 22.0846 12.6748C23.0748 12.3441 23.6498 13.304 23.7616 14.0704C23.7944 14.295 23.7851 14.5405 23.7718 14.7811L23.767 14.8657C23.7662 14.8797 23.7654 14.8939 23.7646 14.9079L23.7599 14.9914C23.7337 15.4901 23.7393 15.9326 24.1369 16.0741C24.5362 16.2161 24.9027 16.0016 25.0473 15.3772C25.1717 14.8398 25.0621 13.6806 24.9994 13.4009C24.8636 12.7958 24.4372 11.3711 22.8352 11.005C21.6017 10.7231 20.8604 11.9175 20.5205 12.5922L20.4926 12.6479C20.4882 12.6571 20.4839 12.666 20.4795 12.6748C19.9046 13.8525 20.1384 15.9307 20.3277 16.5307C20.5225 17.1475 20.515 17.7067 20.4242 18.1661L20.4082 18.0914C20.2698 17.4469 20.1262 16.8895 20.0074 16.561L19.9939 16.5241C19.2641 14.583 18.5181 12.9689 18.1108 10.9625C18.0468 10.647 17.9912 10.3138 17.9362 9.98251L17.9085 9.81713C17.7751 9.01947 17.6359 8.25285 17.3765 7.79819C17.3633 7.77513 17.3498 7.75255 17.3359 7.73043L17.2001 5.39697Z" fill="white"/>
<path d="M113.168 10.7207C114 10.7207 114.739 10.8115 115.385 10.9931C116.032 11.1595 116.532 11.4015 116.886 11.7192C117.256 12.0218 117.441 12.3773 117.441 12.7858C117.441 13.043 117.364 13.285 117.21 13.5119C117.056 13.7237 116.825 13.8296 116.517 13.8296C116.301 13.8296 116.117 13.7918 115.963 13.7162C115.824 13.6405 115.693 13.5498 115.57 13.4439C115.447 13.338 115.293 13.2321 115.108 13.1262C114.939 13.0354 114.685 12.9597 114.346 12.8992C114.023 12.8387 113.73 12.8085 113.469 12.8085C112.653 12.8085 111.944 12.99 111.344 13.3531C110.759 13.7162 110.297 14.2078 109.958 14.8281C109.635 15.4484 109.473 16.1519 109.473 16.9385C109.473 17.7252 109.635 18.4287 109.958 19.0489C110.297 19.6692 110.751 20.1609 111.321 20.524C111.906 20.8871 112.583 21.0686 113.353 21.0686C113.815 21.0686 114.192 21.0383 114.485 20.9778C114.777 20.9022 115.031 20.8114 115.247 20.7055C115.478 20.5694 115.67 20.4332 115.824 20.297C115.993 20.1458 116.224 20.0701 116.517 20.0701C116.856 20.0701 117.11 20.176 117.279 20.3878C117.464 20.5845 117.556 20.8341 117.556 21.1367C117.556 21.4695 117.348 21.7948 116.933 22.1125C116.532 22.415 115.993 22.6646 115.316 22.8613C114.639 23.058 113.892 23.1563 113.076 23.1563C111.875 23.1563 110.828 22.884 109.935 22.3394C109.058 21.7948 108.373 21.0535 107.88 20.1155C107.403 19.1775 107.164 18.1185 107.164 16.9385C107.164 15.7434 107.418 14.6844 107.926 13.7616C108.434 12.8236 109.142 12.0823 110.051 11.5377C110.959 10.993 111.998 10.7207 113.168 10.7207Z" fill="white" fill-opacity="0.5"/>
<path d="M131.404 16.9612C131.404 18.1715 131.135 19.2456 130.596 20.1836C130.057 21.1064 129.326 21.8326 128.402 22.3621C127.478 22.8916 126.439 23.1563 125.284 23.1563C124.13 23.1563 123.09 22.8916 122.167 22.3621C121.243 21.8326 120.504 21.1064 119.95 20.1836C119.411 19.2456 119.141 18.1715 119.141 16.9612C119.141 15.7358 119.411 14.6617 119.95 13.7389C120.504 12.8009 121.243 12.0672 122.167 11.5377C123.09 10.993 124.13 10.7207 125.284 10.7207C126.439 10.7207 127.478 10.993 128.402 11.5377C129.326 12.0672 130.057 12.8009 130.596 13.7389C131.135 14.6617 131.404 15.7358 131.404 16.9612ZM129.095 16.9612C129.095 16.1292 128.925 15.4106 128.587 14.8054C128.248 14.1852 127.786 13.701 127.201 13.3531C126.631 12.99 125.992 12.8085 125.284 12.8085C124.576 12.8085 123.929 12.99 123.344 13.3531C122.759 13.701 122.297 14.1852 121.959 14.8054C121.62 15.4106 121.451 16.1292 121.451 16.9612C121.451 17.763 121.62 18.4741 121.959 19.0943C122.297 19.7146 122.759 20.1987 123.344 20.5467C123.929 20.8946 124.576 21.0686 125.284 21.0686C125.992 21.0686 126.631 20.8946 127.201 20.5467C127.786 20.1987 128.248 19.7146 128.587 19.0943C128.925 18.4741 129.095 17.763 129.095 16.9612Z" fill="white" fill-opacity="0.5"/>
<path d="M143.972 6.13672C144.311 6.13672 144.588 6.24262 144.804 6.45442C145.019 6.66621 145.127 6.94609 145.127 7.29404V21.772C145.127 22.1048 145.019 22.3847 144.804 22.6116C144.588 22.8234 144.311 22.9293 143.972 22.9293C143.649 22.9293 143.372 22.8234 143.141 22.6116C142.925 22.3847 142.818 22.1048 142.818 21.772V20.1381L143.303 20.1608C143.303 20.4331 143.187 20.7432 142.956 21.0912C142.741 21.424 142.44 21.7493 142.056 22.067C141.671 22.3847 141.216 22.6494 140.693 22.8612C140.17 23.0579 139.608 23.1562 139.007 23.1562C137.945 23.1562 136.99 22.8915 136.144 22.362C135.297 21.8174 134.627 21.0836 134.134 20.1608C133.642 19.2228 133.395 18.1487 133.395 16.9384C133.395 15.7282 133.642 14.6616 134.134 13.7388C134.627 12.8008 135.289 12.0671 136.12 11.5376C136.967 10.9929 137.906 10.7206 138.938 10.7206C139.585 10.7206 140.185 10.8265 140.739 11.0383C141.309 11.2501 141.801 11.5224 142.217 11.8553C142.633 12.1881 142.956 12.5436 143.187 12.9218C143.418 13.2849 143.534 13.6329 143.534 13.9657L142.818 14.0338V7.29404C142.818 6.96122 142.925 6.68891 143.141 6.47711C143.372 6.25018 143.649 6.13672 143.972 6.13672ZM139.261 21.0685C140 21.0685 140.639 20.887 141.178 20.5239C141.732 20.1608 142.163 19.6691 142.471 19.0488C142.779 18.4286 142.933 17.7251 142.933 16.9384C142.933 16.1518 142.779 15.4483 142.471 14.828C142.163 14.2077 141.732 13.7161 141.178 13.353C140.624 12.9899 139.985 12.8084 139.261 12.8084C138.553 12.8084 137.922 12.9899 137.368 13.353C136.829 13.7161 136.398 14.2077 136.074 14.828C135.766 15.4483 135.612 16.1518 135.612 16.9384C135.612 17.7251 135.766 18.4286 136.074 19.0488C136.398 19.6691 136.829 20.1608 137.368 20.5239C137.922 20.887 138.553 21.0685 139.261 21.0685Z" fill="white" fill-opacity="0.5"/>
<path d="M154.019 23.1563C152.741 23.1563 151.633 22.8991 150.694 22.3848C149.755 21.8553 149.023 21.1367 148.5 20.229C147.992 19.3061 147.738 18.2547 147.738 17.0747C147.738 15.7434 148.007 14.6087 148.546 13.6708C149.1 12.7177 149.816 11.9915 150.694 11.4923C151.571 10.9779 152.503 10.7207 153.488 10.7207C154.242 10.7207 154.958 10.872 155.636 11.1746C156.313 11.462 156.914 11.8705 157.437 12.4C157.976 12.9144 158.399 13.5271 158.707 14.2381C159.015 14.934 159.177 15.698 159.192 16.5301C159.177 16.8326 159.054 17.0823 158.823 17.2789C158.592 17.4756 158.322 17.5739 158.014 17.5739H149.031L148.477 15.645H157.16L156.721 16.0535V15.4862C156.69 14.9567 156.513 14.4953 156.19 14.1019C155.867 13.6935 155.466 13.3833 154.989 13.1715C154.512 12.9446 154.011 12.8312 153.488 12.8312C153.026 12.8312 152.58 12.9068 152.149 13.0581C151.733 13.1942 151.356 13.4212 151.017 13.7389C150.694 14.0566 150.432 14.4802 150.232 15.0097C150.047 15.524 149.955 16.167 149.955 16.9385C149.955 17.7706 150.132 18.4968 150.486 19.117C150.84 19.7373 151.317 20.2214 151.918 20.5694C152.518 20.9022 153.18 21.0686 153.904 21.0686C154.473 21.0686 154.943 21.0156 155.312 20.9097C155.682 20.7887 155.99 20.645 156.236 20.4786C156.483 20.3122 156.698 20.1533 156.883 20.002C157.114 19.8659 157.345 19.7978 157.576 19.7978C157.853 19.7978 158.084 19.8961 158.268 20.0928C158.453 20.2744 158.546 20.4937 158.546 20.7509C158.546 21.0837 158.376 21.3863 158.037 21.6586C157.622 22.0519 157.044 22.3999 156.305 22.7025C155.582 23.005 154.82 23.1563 154.019 23.1563Z" fill="white" fill-opacity="0.5"/>
<path d="M162.956 22.9294C162.617 22.9294 162.34 22.8235 162.125 22.6117C161.909 22.3848 161.801 22.1049 161.801 21.7721V12.1504C161.801 11.8176 161.909 11.5452 162.125 11.3334C162.34 11.1065 162.617 10.9931 162.956 10.9931C163.279 10.9931 163.549 11.1065 163.764 11.3334C163.995 11.5452 164.111 11.8176 164.111 12.1504V14.692L163.88 13.7162C164.003 13.2926 164.188 12.8992 164.434 12.5362C164.696 12.1731 165.004 11.8554 165.358 11.5831C165.712 11.3107 166.105 11.0989 166.536 10.9477C166.982 10.7964 167.444 10.7207 167.921 10.7207C168.322 10.7207 168.668 10.8266 168.96 11.0384C169.253 11.2502 169.399 11.515 169.399 11.8327C169.399 12.2411 169.291 12.5437 169.076 12.7404C168.86 12.9219 168.622 13.0127 168.36 13.0127C168.129 13.0127 167.906 12.9673 167.69 12.8765C167.475 12.7706 167.221 12.7177 166.928 12.7177C166.605 12.7177 166.274 12.8009 165.935 12.9673C165.597 13.1337 165.289 13.3833 165.011 13.7162C164.734 14.0339 164.511 14.4121 164.342 14.8508C164.188 15.2895 164.111 15.7812 164.111 16.3258V21.7721C164.111 22.1049 163.995 22.3848 163.764 22.6117C163.549 22.8235 163.279 22.9294 162.956 22.9294Z" fill="white" fill-opacity="0.5"/>
<path d="M170.738 21.0686C170.599 20.8568 170.538 20.6147 170.553 20.3424C170.569 20.055 170.73 19.8129 171.038 19.6163C171.254 19.4801 171.477 19.4272 171.708 19.4574C171.954 19.4725 172.185 19.586 172.401 19.7978C172.832 20.2668 173.309 20.6374 173.833 20.9097C174.371 21.1821 175.018 21.3182 175.772 21.3182C176.08 21.3031 176.396 21.2577 176.719 21.1821C177.043 21.0913 177.32 20.94 177.551 20.7282C177.782 20.5013 177.897 20.176 177.897 19.7524C177.897 19.3742 177.774 19.0716 177.527 18.8447C177.281 18.6178 176.958 18.4362 176.558 18.3001C176.157 18.1488 175.726 18.0126 175.264 17.8916C174.772 17.7555 174.271 17.6042 173.763 17.4378C173.271 17.2714 172.824 17.0596 172.424 16.8024C172.023 16.5301 171.692 16.1821 171.431 15.7585C171.184 15.3349 171.061 14.813 171.061 14.1927C171.061 13.4817 171.261 12.869 171.662 12.3546C172.077 11.8402 172.609 11.4393 173.255 11.1519C173.917 10.8645 174.633 10.7207 175.403 10.7207C175.849 10.7207 176.319 10.7813 176.812 10.9023C177.304 11.0082 177.782 11.1822 178.243 11.4242C178.705 11.6663 179.106 11.984 179.444 12.3773C179.598 12.574 179.683 12.8085 179.698 13.0808C179.729 13.3531 179.606 13.5951 179.329 13.8069C179.144 13.9582 178.921 14.0263 178.659 14.0112C178.397 13.996 178.182 13.9128 178.012 13.7616C177.72 13.3985 177.343 13.1186 176.881 12.9219C176.419 12.7101 175.896 12.6042 175.31 12.6042C175.018 12.6042 174.71 12.6496 174.387 12.7404C174.079 12.816 173.817 12.9597 173.602 13.1715C173.386 13.3833 173.278 13.6935 173.278 14.1019C173.278 14.4802 173.401 14.7827 173.648 15.0097C173.909 15.2366 174.248 15.4257 174.664 15.577C175.08 15.7283 175.534 15.8644 176.026 15.9854C176.504 16.1065 176.973 16.2502 177.435 16.4166C177.912 16.583 178.336 16.8024 178.705 17.0747C179.09 17.3319 179.398 17.6723 179.629 18.0959C179.875 18.5043 179.998 19.0263 179.998 19.6617C179.998 20.4029 179.775 21.0383 179.329 21.5678C178.898 22.0822 178.343 22.4755 177.666 22.7479C177.004 23.0202 176.304 23.1563 175.565 23.1563C174.687 23.1563 173.809 23.005 172.932 22.7025C172.07 22.3848 171.338 21.8401 170.738 21.0686Z" fill="white" fill-opacity="0.5"/>
<path d="M44.32 6.15625C44.6125 6.15625 44.9127 6.19407 45.2207 6.26971C45.5286 6.34536 45.7826 6.47395 45.9828 6.65549C46.1983 6.8219 46.3061 7.05639 46.3061 7.35896C46.3061 7.66153 46.2137 7.91115 46.0289 8.10782C45.8442 8.28936 45.6287 8.38013 45.3823 8.38013C45.2284 8.38013 45.0205 8.34987 44.7588 8.28936C44.4971 8.21372 44.2353 8.1759 43.9736 8.1759C43.6195 8.1759 43.3347 8.2591 43.1191 8.42552C42.9036 8.5768 42.7496 8.77347 42.6573 9.01553C42.5649 9.24245 42.5187 9.46938 42.5187 9.69631V21.7688C42.5187 22.1016 42.4032 22.3815 42.1723 22.6084C41.9568 22.8202 41.6873 22.9261 41.364 22.9261C41.0253 22.9261 40.7482 22.8202 40.5327 22.6084C40.3171 22.3815 40.2094 22.1016 40.2094 21.7688V9.719C40.2094 8.67514 40.5558 7.82038 41.2486 7.15473C41.9568 6.48908 42.9806 6.15625 44.32 6.15625ZM44.7819 11.194C45.0898 11.194 45.3438 11.2924 45.544 11.489C45.7441 11.6857 45.8442 11.9353 45.8442 12.2379C45.8442 12.5405 45.7441 12.7901 45.544 12.9867C45.3438 13.1834 45.0898 13.2817 44.7819 13.2817H38.8006C38.5081 13.2817 38.2541 13.1834 38.0386 12.9867C37.8384 12.7901 37.7383 12.5405 37.7383 12.2379C37.7383 11.9353 37.8384 11.6857 38.0386 11.489C38.2541 11.2924 38.5081 11.194 38.8006 11.194H44.7819Z" fill="white"/>
<path d="M58.1119 10.8075C58.4506 10.8075 58.7277 10.921 58.9432 11.1479C59.1588 11.3597 59.2665 11.632 59.2665 11.9649V21.7681C59.2665 22.1009 59.1588 22.3808 58.9432 22.6077C58.7277 22.8195 58.4506 22.9254 58.1119 22.9254C57.7886 22.9254 57.5114 22.8195 57.2805 22.6077C57.065 22.3808 56.9572 22.1009 56.9572 21.7681V20.1342L57.4422 20.2023C57.4422 20.4746 57.3267 20.7772 57.0957 21.11C56.8802 21.4428 56.58 21.7681 56.1951 22.0858C55.8102 22.3884 55.356 22.6456 54.8326 22.8574C54.3091 23.054 53.7472 23.1524 53.1467 23.1524C52.0844 23.1524 51.1299 22.8876 50.2831 22.3581C49.4364 21.8135 48.7667 21.0722 48.274 20.1342C47.7813 19.1963 47.535 18.1297 47.535 16.9346C47.535 15.7092 47.7813 14.635 48.274 13.7122C48.7667 12.7742 49.4287 12.0405 50.26 11.511C51.1068 10.9815 52.0459 10.7168 53.0775 10.7168C53.7395 10.7168 54.3476 10.8227 54.9019 11.0345C55.4715 11.2463 55.9642 11.5186 56.3798 11.8514C56.7955 12.1842 57.1111 12.5398 57.3267 12.918C57.5576 13.281 57.6731 13.629 57.6731 13.9618L56.9572 14.0299V11.9649C56.9572 11.6472 57.065 11.3749 57.2805 11.1479C57.5114 10.921 57.7886 10.8075 58.1119 10.8075ZM53.4008 21.0646C54.1244 21.0646 54.7633 20.8831 55.3175 20.52C55.8718 20.1569 56.3029 19.6653 56.6108 19.045C56.9187 18.4096 57.0727 17.7061 57.0727 16.9346C57.0727 16.1479 56.9187 15.4444 56.6108 14.8242C56.3029 14.2039 55.8718 13.7122 55.3175 13.3491C54.7633 12.986 54.1244 12.8045 53.4008 12.8045C52.6926 12.8045 52.0613 12.986 51.5071 13.3491C50.9682 13.7122 50.5372 14.2039 50.2139 14.8242C49.9059 15.4444 49.752 16.1479 49.752 16.9346C49.752 17.7061 49.9059 18.4096 50.2139 19.045C50.5372 19.6653 50.9682 20.1569 51.5071 20.52C52.0613 20.8831 52.6926 21.0646 53.4008 21.0646Z" fill="white"/>
<path d="M62.3393 11.1258H67.7663C68.0742 11.1258 68.3282 11.2317 68.5283 11.4435C68.7439 11.6402 68.8517 11.8898 68.8517 12.1924C68.8517 12.4798 68.7439 12.7219 68.5283 12.9186C68.3282 13.1152 68.0742 13.2136 67.7663 13.2136H62.3393C62.0313 13.2136 61.7696 13.1152 61.5541 12.9186C61.3539 12.7068 61.2539 12.4571 61.2539 12.1697C61.2539 11.8671 61.3539 11.6175 61.5541 11.4208C61.7696 11.2242 62.0313 11.1258 62.3393 11.1258ZM64.7641 8.17578C65.1028 8.17578 65.3799 8.28924 65.5955 8.51617C65.811 8.72797 65.9188 9.00028 65.9188 9.3331V19.8625C65.9188 20.1348 65.965 20.3542 66.0573 20.5206C66.1497 20.687 66.2729 20.8005 66.4268 20.861C66.5962 20.9215 66.7655 20.9518 66.9349 20.9518C67.1042 20.9518 67.2505 20.9215 67.3737 20.861C67.5122 20.8005 67.6739 20.7702 67.8586 20.7702C68.0434 20.7702 68.2127 20.8534 68.3667 21.0199C68.5206 21.1863 68.5976 21.4132 68.5976 21.7006C68.5976 22.0637 68.3975 22.3587 67.9972 22.5856C67.5969 22.8126 67.1658 22.926 66.704 22.926C66.4422 22.926 66.1343 22.9033 65.7802 22.858C65.4261 22.8126 65.0797 22.6991 64.741 22.5176C64.4177 22.336 64.1483 22.0486 63.9327 21.6552C63.7172 21.2468 63.6094 20.6795 63.6094 19.9533V9.3331C63.6094 9.00028 63.7172 8.72797 63.9327 8.51617C64.1637 8.28924 64.4408 8.17578 64.7641 8.17578Z" fill="white"/>
<path d="M76.6762 10.7168C77.5076 10.7168 78.2466 10.8075 78.8932 10.9891C79.5399 11.1555 80.0402 11.3976 80.3943 11.7153C80.7638 12.0178 80.9486 12.3733 80.9486 12.7818C80.9486 13.039 80.8716 13.281 80.7176 13.508C80.5637 13.7198 80.3327 13.8257 80.0248 13.8257C79.8093 13.8257 79.6245 13.7879 79.4706 13.7122C79.332 13.6366 79.2011 13.5458 79.078 13.4399C78.9548 13.334 78.8009 13.2281 78.6161 13.1222C78.4468 13.0314 78.1927 12.9558 77.854 12.8953C77.5307 12.8348 77.2382 12.8045 76.9765 12.8045C76.1605 12.8045 75.4523 12.986 74.8518 13.3491C74.2668 13.7122 73.8049 14.2039 73.4662 14.8242C73.1429 15.4444 72.9813 16.1479 72.9813 16.9346C72.9813 17.7212 73.1429 18.4247 73.4662 19.045C73.8049 19.6653 74.2591 20.1569 74.8288 20.52C75.4138 20.8831 76.0912 21.0646 76.861 21.0646C77.3229 21.0646 77.7001 21.0344 77.9926 20.9739C78.2851 20.8982 78.5391 20.8075 78.7547 20.7016C78.9856 20.5654 79.1781 20.4292 79.332 20.2931C79.5014 20.1418 79.7323 20.0662 80.0248 20.0662C80.3635 20.0662 80.6176 20.1721 80.7869 20.3839C80.9717 20.5805 81.064 20.8301 81.064 21.1327C81.064 21.4655 80.8562 21.7908 80.4405 22.1085C80.0402 22.4111 79.5014 22.6607 78.8239 22.8574C78.1465 23.054 77.3998 23.1524 76.5839 23.1524C75.383 23.1524 74.3361 22.8801 73.4431 22.3354C72.5656 21.7908 71.8805 21.0495 71.3878 20.1115C70.9105 19.1736 70.6719 18.1146 70.6719 16.9346C70.6719 15.7394 70.9259 14.6804 71.434 13.7576C71.9421 12.8196 72.6503 12.0783 73.5586 11.5337C74.467 10.9891 75.5062 10.7168 76.6762 10.7168Z" fill="white"/>
<path d="M93.2253 10.8075C93.564 10.8075 93.8411 10.921 94.0566 11.1479C94.2722 11.3597 94.38 11.632 94.38 11.9649V21.7681C94.38 22.1009 94.2722 22.3808 94.0566 22.6077C93.8411 22.8195 93.564 22.9254 93.2253 22.9254C92.902 22.9254 92.6248 22.8195 92.3939 22.6077C92.1784 22.3808 92.0706 22.1009 92.0706 21.7681V20.1342L92.5556 20.2023C92.5556 20.4746 92.4401 20.7772 92.2092 21.11C91.9936 21.4428 91.6934 21.7681 91.3085 22.0858C90.9236 22.3884 90.4694 22.6456 89.946 22.8574C89.4225 23.054 88.8606 23.1524 88.2601 23.1524C87.1978 23.1524 86.2433 22.8876 85.3965 22.3581C84.5498 21.8135 83.8801 21.0722 83.3874 20.1342C82.8947 19.1963 82.6484 18.1297 82.6484 16.9346C82.6484 15.7092 82.8947 14.635 83.3874 13.7122C83.8801 12.7742 84.5421 12.0405 85.3735 11.511C86.2202 10.9815 87.1594 10.7168 88.1909 10.7168C88.8529 10.7168 89.461 10.8227 90.0153 11.0345C90.5849 11.2463 91.0776 11.5186 91.4933 11.8514C91.9089 12.1842 92.2246 12.5398 92.4401 12.918C92.671 13.281 92.7865 13.629 92.7865 13.9618L92.0706 14.0299V11.9649C92.0706 11.6472 92.1784 11.3749 92.3939 11.1479C92.6248 10.921 92.902 10.8075 93.2253 10.8075ZM88.5142 21.0646C89.2378 21.0646 89.8767 20.8831 90.431 20.52C90.9852 20.1569 91.4163 19.6653 91.7242 19.045C92.0321 18.4096 92.1861 17.7061 92.1861 16.9346C92.1861 16.1479 92.0321 15.4444 91.7242 14.8242C91.4163 14.2039 90.9852 13.7122 90.431 13.3491C89.8767 12.986 89.2378 12.8045 88.5142 12.8045C87.806 12.8045 87.1748 12.986 86.6205 13.3491C86.0817 13.7122 85.6506 14.2039 85.3273 14.8242C85.0193 15.4444 84.8654 16.1479 84.8654 16.9346C84.8654 17.7061 85.0193 18.4096 85.3273 19.045C85.6506 19.6653 86.0817 20.1569 86.6205 20.52C87.1748 20.8831 87.806 21.0646 88.5142 21.0646Z" fill="white"/>
<path d="M97.4526 11.1258H102.879C103.187 11.1258 103.441 11.2317 103.641 11.4435C103.857 11.6402 103.965 11.8898 103.965 12.1924C103.965 12.4798 103.857 12.7219 103.641 12.9186C103.441 13.1152 103.187 13.2136 102.879 13.2136H97.4526C97.1447 13.2136 96.8829 13.1152 96.6674 12.9186C96.4672 12.7068 96.3672 12.4571 96.3672 12.1697C96.3672 11.8671 96.4672 11.6175 96.6674 11.4208C96.8829 11.2242 97.1447 11.1258 97.4526 11.1258ZM99.8774 8.17578C100.216 8.17578 100.493 8.28924 100.708 8.51617C100.924 8.72797 101.032 9.00028 101.032 9.3331V19.8625C101.032 20.1348 101.078 20.3542 101.17 20.5206C101.263 20.687 101.386 20.8005 101.54 20.861C101.709 20.9215 101.878 20.9518 102.048 20.9518C102.217 20.9518 102.363 20.9215 102.487 20.861C102.625 20.8005 102.787 20.7702 102.972 20.7702C103.156 20.7702 103.326 20.8534 103.48 21.0199C103.634 21.1863 103.711 21.4132 103.711 21.7006C103.711 22.0637 103.51 22.3587 103.11 22.5856C102.71 22.8126 102.279 22.926 101.817 22.926C101.555 22.926 101.247 22.9033 100.893 22.858C100.539 22.8126 100.193 22.6991 99.8543 22.5176C99.531 22.336 99.2616 22.0486 99.046 21.6552C98.8305 21.2468 98.7227 20.6795 98.7227 19.9533V9.3331C98.7227 9.00028 98.8305 8.72797 99.046 8.51617C99.277 8.28924 99.5541 8.17578 99.8774 8.17578Z" fill="white"/>
</g>
</g>
</g>
<defs>
<clipPath id="clip0_3_34161">
<rect width="180" height="30" fill="white"/>
</clipPath>
<clipPath id="clip1_3_34161">
<rect width="180" height="30" fill="white"/>
</clipPath>
<clipPath id="clip2_3_34161">
<rect width="180" height="30" fill="white"/>
</clipPath>
</defs>
</svg>